<svg xmlns="http://www.w3.org/2000/svg" width="1024" height="512"><path d="M95.4 435.5H127V259.369c0-40.482 31.072-69.778 73.684-69.778a133.929 133.929 0 0 1 19 1.776V159.23c-4.261-.177-11.541-.532-16.69-.532-34.267 0-63.563 18.465-74.571 45.985h-2.308v-41.9H95.4V435.5zm178.624 0H305.8V162.781h-31.78V435.5zm16.157-319.592c12.961 0 23.792-10.3 23.792-22.727s-10.831-22.727-23.792-22.727-23.614 10.3-23.614 22.727 10.649 22.727 23.61 22.727zm131.032-44.033h-31.6V435.5h31.6V71.875zm83.8 363.625H536.8V162.781h-31.785V435.5zm16.157-319.592c12.961 0 23.792-10.3 23.792-22.727s-10.831-22.727-23.792-22.727-23.614 10.3-23.614 22.727 10.655 22.727 23.616 22.727zm282.667 106.708C790.52 183.2 761.4 159.053 711.51 159.053c-55.041 0-94.99 31.426-94.99 76.347 0 36.575 22.194 61.432 69.6 72.8l44.565 10.653c30.007 7.1 44.388 22.549 44.388 44.388 0 28.408-27.165 49.536-69.067 49.536-37.286 0-60.545-16.867-68.18-49.181l-30.361 7.457c9.588 45.453 45.631 70.133 99.074 70.133 60.012 0 101.2-33.025 101.2-79.366 0-36.4-22.9-60.722-68.535-71.908l-41.192-10.12c-33.912-8.527-49.712-22.198-49.712-45.813 0-27.7 26.455-47.051 63.208-47.051s54.863 19.353 63.386 43.855zm98.372 215.547a25.567 25.567 0 1 0-25.567-25.563 25.574 25.574 0 0 0 25.567 25.563z" fill="#040404" fill-rule="evenodd"/></svg>