<svg version="1" xmlns="http://www.w3.org/2000/svg" width="933.333" height="933.333" viewBox="0 0 700.000000 700.000000"><path d="M332.1 1.1c-49.4 2.6-93.7 14.3-138 36.6C157.5 56.1 131 75.1 103 103c-19.6 19.5-39.3 44.6-50.5 64-2.1 3.6-4.3 7.2-5 8-2.1 2.5-16.1 30.9-19.9 40-9.2 22.7-13.1 35.4-20.1 65.5-8.9 38.2-8.9 100.8 0 139 7 30.1 10.9 42.8 20.1 65.5 3.8 9.1 17.8 37.5 19.9 40 .7.8 3 4.6 5.3 8.5 4.4 7.7 17.1 26 24 34.5 51 63.2 119.9 105.9 199.5 123.6 46.1 10.2 101.3 10.2 147.4 0 53.1-11.8 103.9-35.9 144.3-68.4 31.1-25.1 62.3-60.5 79.2-89.7 2.3-3.9 4.6-7.7 5.3-8.5 2.1-2.5 16.1-30.9 19.9-40 9.2-22.7 13.1-35.4 20.1-65.5 8.9-38.2 8.9-100.8 0-139-7-30.1-10.9-42.8-20.1-65.5-3.8-9.1-17.8-37.5-19.9-40-.7-.8-2.9-4.4-5-8-17-29.5-48.6-65.3-79.5-90.2C513.5 33 440.5 4.8 373 1.5c-6.3-.3-14.6-.7-18.5-.9-3.8-.2-13.9 0-22.4.5zm42.2 256.5l3.7.7v20.3c0 11.1-.4 20.5-.8 20.8-.4.3-2.8 0-5.3-.6-2.4-.5-10.5-1-17.9-1.1-16-.1-24.2 1.8-36 8.3-13.2 7.2-22.3 18.1-27.8 33.2l-2.7 7.3-.3 88.8-.3 88.7-20.2-.2-20.2-.3-.3-131.3L246 261h40v19.5c0 10.7.4 19.5.8 19.5.5 0 2.4-3 4.3-6.7 9-17.7 31-32 54.9-35.6 4.3-.7 24.3-.7 28.3-.1zm61.8 209.1c6.5 2.9 12 8.2 15.4 14.9 2.4 4.8 2.9 6.9 2.9 13.4 0 6.4-.5 8.7-2.8 13.3-9 18.6-33.4 23.7-48.5 10.1-17.9-16.1-12.5-44.5 10.1-52.6 6.6-2.3 16.4-2 22.9.9z"/></svg>